# xmcd CD database file
#
# Track frame offsets:
#	150
#	19557
#	36330
#	52932
#	68545
#	84240
#	108125
#	131582
#	151957
#	170610
#	189227
#
# Disc length: 2900 seconds
#
# Revision: 16
# Processed by: cddbd v1.5.1PL0 Copyright (c) Steve Scherf et al.
# Submitted via: CDex 1.51
#
DISCID=7a0b520b
DTITLE=松浦亜弥 - X3
DYEAR=2004
DGENRE=J ポップ
TTITLE0=Good Bye 夏男
TTITLE1=GET UP! ラッパー (松浦 Version)
TTITLE2=可能性の道
TTITLE3=ね〜え？
TTITLE4=オリジナル人生
TTITLE5=恋してごめんね
TTITLE6=The Last Night
TTITLE7=私と私と私
TTITLE8=Yeah! めっちゃホリディ (High Tuned Mix)
TTITLE9=涙のわけ
TTITLE10=Love Train
EXTD=YEAR: 2004
EXTT0=
EXTT1=
EXTT2=
EXTT3=
EXTT4=
EXTT5=
EXTT6=
EXTT7=
EXTT8=
EXTT9=
EXTT10=
PLAYORDER=
